<svg width="680.4px" height="138.06px" viewBox="0 0 680.4 138.06">
    <style type="text/css">
	.st0{fill:#DB1E30;}
	.st1{fill:#0099DC;}
	.st2{fill:#F4A717;}
	.st3{fill:#0A944A;}
	.st4{fill:#58595B;}
    </style>
    <path class="st0" d="M644.88,57.71c-0.28-0.57-0.28-1.24,0-1.82c0.28-0.51,0.88-0.76,1.82-0.76h6.42c0.4-0.01,0.79,0.14,1.08,0.41
			c0.29,0.28,0.51,0.63,0.64,1.01l7.47,21.25l7.31-21.25c0.12-0.44,0.38-0.84,0.74-1.13c0.38-0.21,0.81-0.32,1.24-0.3h6.9
			c0.4-0.02,0.8,0.05,1.17,0.21c0.51,0.2,0.8,0.73,0.71,1.26c-0.03,0.28-0.1,0.55-0.21,0.81l-2.3,5.43l-2.41,6.09l-2.6,6.46
			l-2.58,6.46l-2.41,6.09l-2.12,5.36l-1.68,4.3l-1.08,2.85v-0.14c-0.1,0.44-0.34,0.84-0.67,1.15c-0.32,0.29-0.74,0.45-1.17,0.44
			h-6.09c-0.58,0.06-1.17-0.1-1.63-0.46c-0.32-0.38-0.47-0.87-0.44-1.36c-0.04-0.17-0.04-0.35,0-0.53c0.04-0.08,0.08-0.16,0.14-0.23
			l4.14-10.76L644.88,57.71z"/>
    <path class="st0" d="M571.41,72.61c4.42,0,8,3.58,8,8c0,4.42-3.58,8-8,8c-4.42,0-8-3.58-8-8
			C563.4,76.19,566.99,72.61,571.41,72.61z"/>
    <path class="st0" d="M590.65,87.1V57.62c-0.02-0.5,0.15-0.98,0.48-1.36c0.3-0.34,0.74-0.54,1.2-0.53h6.16
			c0.46-0.02,0.91,0.18,1.22,0.53c0.32,0.38,0.48,0.86,0.46,1.36v1.91c1.14-1.27,2.44-2.36,3.89-3.27c1.4-0.79,2.99-1.17,4.6-1.13
			c4.1-0.11,7.89,2.16,9.73,5.82c3.43-3.88,6.93-5.82,10.49-5.82c3.24-0.16,6.38,1.15,8.55,3.56c2.34,3.18,3.45,7.09,3.13,11.02
			V87.1c0.02,0.49-0.14,0.96-0.46,1.33c-0.31,0.34-0.76,0.53-1.22,0.51h-6.14c-0.46,0.01-0.91-0.18-1.22-0.53
			c-0.32-0.36-0.5-0.83-0.48-1.31V69.71c0-4.84-1.59-7.26-4.78-7.24c-1.95,0-3.96,1.53-6.02,4.6c0.11,0.86,0.16,1.73,0.16,2.6V87.1
			c0.02,0.49-0.15,0.97-0.48,1.33c-0.31,0.33-0.74,0.52-1.2,0.51h-6.14c-0.46,0.01-0.91-0.18-1.22-0.53
			c-0.32-0.36-0.5-0.83-0.48-1.31V69.71c0-4.84-1.59-7.26-4.78-7.24c-2.04,0-3.99,1.44-5.86,4.32V87.1
			c0.02,0.49-0.15,0.97-0.48,1.33c-0.31,0.33-0.74,0.52-1.2,0.51h-6.16c-0.46,0.02-0.91-0.17-1.22-0.51
			C590.82,88.07,590.64,87.59,590.65,87.1z"/>
    <path class="st0" d="M222.42,84.66V36.19c-0.05-0.84,0.23-1.67,0.78-2.3c0.5-0.57,1.22-0.89,1.98-0.87h10.14
			c0.76-0.03,1.5,0.29,2,0.87c0.54,0.64,0.81,1.46,0.76,2.3v3.13c1.88-2.08,4.04-3.88,6.42-5.36c2.31-1.3,4.94-1.94,7.59-1.86
			c6.77-0.23,13.06,3.51,16.1,9.57c5.55-6.35,11.21-9.52,16.99-9.52c5.33-0.25,10.49,1.9,14.05,5.86c3.42,3.91,5.14,9.94,5.15,18.1
			v28.56c0.07,0.84-0.21,1.67-0.76,2.3c-0.51,0.57-1.24,0.88-2,0.85h-10.09c-0.77,0.02-1.51-0.3-2.02-0.87
			c-0.53-0.59-0.81-1.37-0.78-2.16V56.05c0-7.97-2.63-11.94-7.89-11.91c-3.2,0-6.51,2.54-9.91,7.61c0.24,1.42,0.4,2.86,0.46,4.3
			v28.61c0.07,0.84-0.22,1.67-0.78,2.3c-0.5,0.56-1.23,0.87-1.98,0.85h-10.09c-0.77,0.02-1.51-0.3-2.02-0.87
			c-0.53-0.59-0.81-1.37-0.78-2.16V56.05c0-7.97-2.63-11.94-7.89-11.91c-3.36,0-6.58,2.38-9.66,7.13v33.39
			c0.07,0.84-0.22,1.67-0.78,2.3c-0.5,0.56-1.23,0.87-1.98,0.85h-10.23c-0.76,0.03-1.49-0.29-2-0.85
			C222.63,86.33,222.35,85.5,222.42,84.66z"/>
    <path class="st0" d="M315.62,64.72V36.19c-0.05-0.84,0.23-1.67,0.78-2.3c0.5-0.57,1.22-0.89,1.98-0.87h10.14
			c0.76-0.03,1.5,0.29,2,0.87c0.54,0.64,0.81,1.46,0.76,2.3V64.7c0,7.96,2.87,11.93,8.6,11.93c3.77,0,7.83-2.39,12.19-7.17V36.19
			c-0.05-0.84,0.23-1.67,0.78-2.3c0.5-0.57,1.22-0.89,1.98-0.87h10.09c0.77-0.02,1.51,0.3,2.02,0.87c0.55,0.63,0.84,1.46,0.78,2.3
			v48.48c0.07,0.84-0.22,1.67-0.78,2.3c-0.52,0.56-1.26,0.87-2.02,0.85h-10.07c-0.76,0.03-1.5-0.29-2-0.87
			c-0.52-0.61-0.79-1.39-0.76-2.18v-3.31c-5.2,4.83-10.48,7.24-15.84,7.24c-5.65,0.28-11.15-1.89-15.09-5.96
			C317.47,78.84,315.62,72.83,315.62,64.72z"/>
    <path class="st0" d="M376.06,60.42c0-9.2,2.15-16.2,6.46-21.02c4.41-4.89,10.78-7.56,17.36-7.27c4.48,0.12,8.91,0.97,13.11,2.53
			v-21.8c-0.05-0.84,0.23-1.67,0.78-2.3c0.5-0.57,1.22-0.89,1.98-0.87h10.09c0.77-0.02,1.51,0.3,2.02,0.87
			c0.55,0.63,0.84,1.46,0.78,2.3v71.79c0.07,0.84-0.22,1.67-0.78,2.3c-0.52,0.56-1.26,0.87-2.02,0.85h-8.67
			c-0.76,0.03-1.5-0.29-2-0.87c-0.52-0.61-0.79-1.39-0.76-2.18v-1.54c-4.41,3.66-9.97,5.65-15.71,5.61
			c-6.29,0.18-12.32-2.53-16.35-7.36C378.16,76.47,376.06,69.45,376.06,60.42z M391.72,60.42c-0.3,4.25,0.55,8.51,2.46,12.33
			c1.77,2.66,4.84,4.15,8.03,3.89c3.96-0.42,7.71-1.98,10.81-4.48V46.14c-3.14-1.22-6.47-1.89-9.84-2
			c-3.42-0.34-6.76,1.13-8.83,3.86C392.59,50.58,391.72,54.72,391.72,60.42z"/>
    <path class="st0" d="M443.41,84.11c-3.99-3.05-6.23-7.86-6-12.88c-0.26-5.02,1.99-9.84,6-12.85c4.53-3.15,9.96-4.73,15.48-4.48
			h14.99c0.29-2.9-0.53-5.8-2.3-8.12c-1.94-1.69-4.48-2.52-7.04-2.3c-4.2,0-7.15,1.13-8.85,3.38c-1.18,1.7-3.13,2.69-5.2,2.64h-6.65
			c-0.76,0.02-1.49-0.3-2-0.87c-0.53-0.59-0.81-1.37-0.78-2.16c0-9.54,8.22-14.3,24.67-14.3c6.17-0.3,12.25,1.55,17.2,5.24
			c4.35,3.54,6.53,9.01,6.53,16.42v30.84c0.07,0.84-0.21,1.67-0.76,2.3c-0.51,0.57-1.24,0.88-2,0.85h-8.74
			c-0.76,0.03-1.5-0.29-2-0.87c-0.52-0.6-0.79-1.37-0.76-2.16v-1.54c-4.65,3.71-10.45,5.69-16.4,5.59
			C453.3,89.01,447.88,87.35,443.41,84.11z M453.05,71.23c-0.05,1.7,0.64,3.34,1.91,4.48c1.51,1.25,3.45,1.87,5.4,1.75
			c4.85-0.06,9.56-1.63,13.48-4.48v-7.86h-13.89c-1.83-0.1-3.62,0.51-5.01,1.7C453.68,67.93,452.98,69.55,453.05,71.23z"/>
    <path class="st0" d="M500.67,84.66V12.87c-0.05-0.84,0.23-1.67,0.78-2.3c0.5-0.57,1.22-0.89,1.98-0.87h10.14
			c0.76-0.03,1.5,0.29,2,0.87c0.54,0.64,0.81,1.46,0.76,2.3v26.44c4.17-4.34,9.85-6.91,15.87-7.17c5.65-0.32,11.17,1.82,15.13,5.86
			c3.68,3.94,5.52,9.96,5.52,18.05v28.61c0.07,0.84-0.22,1.67-0.78,2.3c-0.52,0.56-1.26,0.87-2.02,0.85h-10.1
			c-0.76,0.03-1.5-0.29-2-0.87c-0.52-0.6-0.79-1.37-0.76-2.16V56.05c0-7.97-2.88-11.94-8.65-11.91c-3.77,0-7.82,2.38-12.14,7.13
			v33.39c0.06,0.84-0.22,1.67-0.78,2.3c-0.5,0.56-1.23,0.87-1.98,0.85H503.5c-0.76,0.03-1.49-0.29-2-0.85
			C500.92,86.34,500.62,85.51,500.67,84.66z"/>
    <path d="M2.46,126.77l0.23,0.18h0.14H2.69L2.46,126.77z"/>
    <path d="M1.89,126.19L1.89,126.19L1.89,126.19l0.3,0.23l0,0l0,0L1.89,126.19z"/>
    <path d="M4.26,127.71H3.98H4.26h0.16l0,0H4.26z"/>
    <path d="M1.18,125.13v0.16l0,0l0,0V125.13z"/>
    <path d="M0.03,106.88c-0.17-2.1,0.51-4.17,1.91-5.75c0.2-0.22,0.42-0.43,0.64-0.62c-0.23,0.19-0.44,0.4-0.64,0.62
			C0.54,102.7-0.15,104.78,0.03,106.88v12.88c0,0.51,0,0.99,0,1.45c0-0.46,0-0.92,0-1.45V106.88z"/>
    <path d="M0.67,123.94l-0.14-0.39v-0.32v0.32L0.67,123.94l0.21,0.53v0.23v-0.23L0.67,123.94z"/>
    <path d="M61.66,128.05"/>
    <path d="M92.13,128.08c1.2,0,2.39,0.18,3.54,0.53C94.52,128.26,93.33,128.08,92.13,128.08z"/>
    <path d="M5.02,127.85"/>
    <path d="M102.13,132.79L102.13,132.79c1.16,1.19,2.5,2.21,3.96,3.01C104.63,135,103.29,133.98,102.13,132.79z"/>
    <path d="M100.96,131.6c0.37,0.32,0.64,0.6,0.83,0.8l0.14,0.16l-0.14-0.16C101.6,132.22,101.21,131.92,100.96,131.6z"/>
    <path d="M19.6,96.9c-0.87,0.18-1.68,0.32-2.44,0.44l-1.77,0.21l1.77-0.21C17.89,97.22,18.72,97.06,19.6,96.9z"/>
    <path d="M5.39,127.89"/>
    <path d="M13.13,127.87c2.15,0.29,4.14,1.3,5.63,2.87C17.27,129.17,15.29,128.16,13.13,127.87z"/>
    <path d="M188.59,24.64c0.61,0.61,1.13,1.31,1.54,2.07C189.72,25.95,189.2,25.25,188.59,24.64z"/>
    <path d="M186.55,127.13c-0.51,0.28-1.05,0.51-1.61,0.69C185.49,127.65,186.03,127.42,186.55,127.13z"/>
    <path d="M182.25,128.22c0.91,0,1.82-0.14,2.69-0.41C184.07,128.08,183.16,128.21,182.25,128.22z"/>
    <path d="M114.29,137.92c0.6,0.03,1.2,0.03,1.79,0C115.49,137.95,114.89,137.95,114.29,137.92z"/>
    <path d="M190.18,123.5c-0.41,0.76-0.93,1.46-1.54,2.07C189.25,124.96,189.77,124.26,190.18,123.5z"/>
    <path d="M128.3,131.02l0.21-0.18l0.34-0.3l-0.34,0.3L128.3,131.02z"/>
    <path d="M186.55,23.1c0.76,0.41,1.46,0.93,2.07,1.54C188,24.03,187.31,23.51,186.55,23.1z"/>
    <path d="M3.34,127.34L3.34,127.34l-0.48-0.3L3.34,127.34z"/>
    <path d="M3.98,99.56c0.31-0.16,0.64-0.31,0.97-0.44C4.62,99.25,4.3,99.4,3.98,99.56z"/>
    <path d="M7.09,98.48c1.29-0.25,2.44-0.41,3.52-0.53C9.52,98.07,8.37,98.23,7.09,98.48z"/>
    <path d="M10.6,97.95l3.08-0.28L10.6,97.95z"/>
    <path d="M31.05,137.92c-1.82-0.2-3.59-0.7-5.24-1.47C27.46,137.22,29.23,137.72,31.05,137.92z"/>
    <path d="M19.46,131.44l-0.69-0.67L19.46,131.44z"/>
    <path d="M39.81,89.17L39.81,89.17l-0.48,0.18l-1.13,0.48l1.13-0.48L39.81,89.17z"/>
    <path d="M24.22,135.62c-1.02-0.66-1.97-1.43-2.83-2.3C22.25,134.19,23.2,134.96,24.22,135.62z"/>
    <path d="M130.32,129.39l-0.41,0.25l-0.51,0.39l0,0l0.51-0.39L130.32,129.39L130.32,129.39L130.32,129.39z"/>
    <path d="M133.13,31.01c0.01-4.97,4.04-8.99,9.01-8.99h40.11c1.5-0.01,2.98,0.37,4.3,1.08c-1.32-0.71-2.8-1.09-4.3-1.08h-40.11
			c-4.98,0-9.01,4.04-9.01,9.01l0,0v4.39l0,0V31.01z"/>
    <path d="M191.26,119.22c0,1.21-0.24,2.41-0.71,3.52C191.02,121.63,191.26,120.43,191.26,119.22V31.01c0.01-1.5-0.37-2.98-1.08-4.3
			c0.71,1.32,1.09,2.8,1.08,4.3V119.22z"/>
    <path class="st1" d="M78.07,3.1c-6.6,5.15-12.92,10.67-18.92,16.51c-8.45,7.67-16.84,15.44-25.18,23.32
			c-5.08,4.76-14.49,10.67-14.88,18.4c-0.21,4.44,4.05,5.84,7.63,6.48c3.59,0.64,7.52,1.13,10.26,3.43c2.74,2.3,2.94,6.9,2.88,10.49
			c0,0.18,0,0.37,0,0.55c0.9-0.32,1.82-0.62,2.76-0.9c1.59-0.46,3.33-0.87,5.33-1.29l2.3-0.44l0,0h0.28
			c0.92-0.16,1.91-0.32,3.08-0.46l0,0h0.57l2.94-0.28h0.39l2.64-0.12h0.53h2.83h9.36v-8.26c0-3.81,3.09-6.9,6.9-6.9l0,0h17.41
			c3.81,0,6.9,3.09,6.9,6.9v20.17c1.77,1.15,3.5,2.3,5.27,3.24l0.25,0.14h0.12l0.34,0.21l1.45,0.23c3.2,0.53,9.2,1.49,14.46,2.55
			l0.78,0.16V31.01c0-0.37,0-0.74,0-1.1C111.07,16.5,94.77,2.24,94.77,2.24C89.59-1.04,82.9-0.69,78.07,3.1z"/>
    <path class="st2" d="M190.18,26.74c-1.58-2.91-4.62-4.72-7.93-4.71h-40.11c-4.98,0-9.01,4.04-9.01,9.01l0,0v67.79l2.62,0.64
			l1.61,0.44l1.33,0.39c2.87,0.83,5.6,2.09,8.09,3.73c-0.07-0.39-0.11-0.78-0.12-1.17V42.19c0-3.81,3.09-6.9,6.9-6.9l0,0h17.41
			c3.81,0,6.9,3.09,6.9,6.9v60.59c0,3.81-3.09,6.9-6.9,6.9H153.5c-0.5-0.01-1-0.07-1.5-0.18c1.03,1.66,1.74,3.5,2.09,5.43
			c0.1,1.32,0.1,2.64,0,3.96v4.21c0.07,1.57-0.18,3.13-0.74,4.6c0,0.23-0.21,0.44-0.3,0.64h29.18c3.31,0,6.35-1.81,7.93-4.71
			c0.14-0.26,0.27-0.52,0.39-0.78c0.47-1.11,0.71-2.31,0.71-3.52v-88.3C191.28,29.52,190.9,28.05,190.18,26.74z M162.19,122.56
			c-2.39,0-4.32-1.94-4.32-4.32c0-2.39,1.94-4.32,4.32-4.32c2.39,0,4.32,1.94,4.32,4.32l0,0
			C166.52,120.62,164.58,122.56,162.19,122.56z"/>
    <path class="st3" d="M147.73,119.25c0-0.46,0-1.06,0-1.68c0-0.56-0.04-1.12-0.12-1.68c-0.15-0.92-0.43-1.81-0.85-2.64
			c-0.41-0.84-0.94-1.61-1.56-2.3c-0.42-0.46-0.88-0.88-1.38-1.26c-0.51-0.39-1.05-0.76-1.61-1.08c-1.42-0.8-2.91-1.44-4.46-1.93
			l-0.34-0.12l-0.58-0.18c-0.87-0.28-1.75-0.51-2.64-0.74l-1.04-0.25l-1.75-0.41l-1.84-0.44l-0.58-0.14l-2.3-0.51l-0.74-0.16
			l-1.33-0.3l-5.01-0.87c-2.92-0.53-5.75-0.99-7.87-1.33l-3.27-0.53c-0.39-0.08-0.77-0.21-1.13-0.39c-0.37-0.18-0.71-0.39-1.06-0.58
			l-0.21-0.11l-2.09-1.22L101,96.53l-3.31-2.3c-6.05-4-12.12-7.89-19.55-8.99h-0.25l-1.13-0.14h-0.55l0,0h-0.78h-11.8h-2.69h-0.51
			H58h-0.48l-2.67,0.25h-0.6c-0.92,0-1.82,0.23-2.71,0.41l0,0l-2.3,0.46l-2.6,0.58l-2.3,0.6l-1.54,0.48l-1.43,0.51l-1.06,0.41
			l-0.58,0.23l-0.48,0.18l-1.13,0.48c-2.69,1.17-5.75,2.67-10.67,4.76c-1.84,0.67-3.43,1.15-4.85,1.54l-2.3,0.55l-0.87,0.18
			c-0.87,0.18-1.68,0.32-2.44,0.44l-1.77,0.21l-1.68,0.14l-3.08,0.28c-1.08,0.12-2.3,0.28-3.52,0.53c-0.74,0.15-1.46,0.36-2.16,0.64
			c-0.33,0.13-0.65,0.27-0.97,0.44l-0.6,0.37c-0.28,0.18-0.55,0.38-0.8,0.6c-0.18,0.24-0.34,0.5-0.48,0.76
			c-1.39,1.58-2.08,3.65-1.91,5.75v12.88c0,0.51,0,0.99,0,1.45c0,0.46,0,0.28,0,0.41c0,0.14,0,0.58,0,0.83s0,0.3,0,0.44v0.32v0.32
			l0.14,0.39l0.21,0.53v0.23v0.12l0.16,0.3v0.16l0,0v0.18l0.28,0.37l0.12,0.16l0,0l1.26,0.46l0,0l0,0H2.3l0.23,0.18h0.14l0.48,0.3
			l0,0l0.41,0.18h0.16h0.28h0.16h8.97c2.15,0.29,4.14,1.3,5.63,2.88l0.69,0.67l0.62,0.67l0,0c1.12,1.67,2.52,3.13,4.14,4.32
			c6.46,3.88,14.71,3.03,20.24-2.09c0.43-0.4,0.85-0.82,1.24-1.27l0,0c0.4-0.4,0.82-0.77,1.26-1.13c0.51-0.4,1.04-0.77,1.59-1.1
			c0.53-0.33,1.08-0.63,1.66-0.9c0.85-0.44,1.77-0.73,2.71-0.87h0.8h2.07l0,0c1.75,0,3.5,0,5.27,0h31.07c1.2,0,2.39,0.18,3.54,0.53
			c1.42,0.43,2.77,1.09,3.98,1.95l0.94,0.71l0.39,0.35c0.37,0.32,0.64,0.6,0.83,0.8l0.14,0.16l0,0l0.12,0.14l0,0
			c1.17,1.19,2.5,2.21,3.96,3.01c2.51,1.39,5.34,2.12,8.21,2.12c0.6,0.03,1.2,0.03,1.79,0c1.73-0.18,3.42-0.63,5.01-1.33
			c2.08-0.98,3.94-2.36,5.47-4.07l0,0l0,0l0.74-0.74l0.16-0.14l0.64-0.62l0,0l0.21-0.18l0.34-0.3l0.18-0.16l0.32-0.25l0,0l0.51-0.39
			l0.41-0.25l0,0l0,0l0.37-0.23l0.32-0.16l0,0l0.55-0.25l0.46-0.14l0.44-0.14h0.14h0.48h0.62h0.34l0,0h4.42h4.44
			c0.37-0.01,0.74-0.05,1.1-0.14c0.41-0.09,0.8-0.23,1.17-0.41l0.53-0.32l0.48-0.41l0.62-0.97c0.41-0.39,0.75-0.86,0.99-1.38
			c0.18-0.49,0.26-1,0.25-1.52c0-0.18,0-0.34,0-0.51C147.75,121.79,147.74,120.54,147.73,119.25z"/>
    <path class="st4" d="M261.28,126.84c0.04,0.7-0.5,1.29-1.19,1.33c-0.03,0-0.06,0-0.09,0c-0.7,0.01-1.28-0.54-1.29-1.24
			c0-0.03,0-0.06,0-0.09v-1.15l0,0c-1,1.57-2.74,2.51-4.6,2.48c-4.6,0-7.29-4.07-7.29-8.46c0-4.39,2.62-8.46,7.29-8.46
			c1.81,0.01,3.51,0.86,4.6,2.3l0,0v-0.92c-0.04-0.7,0.5-1.29,1.19-1.33c0.03,0,0.06,0,0.09,0c0.7-0.01,1.28,0.54,1.29,1.24
			c0,0.03,0,0.06,0,0.09V126.84z M254.15,125.8c3.36,0,4.6-3.31,4.6-6.09c0-2.78-1.17-6.09-4.6-6.09c-3.43,0-4.6,3.31-4.6,6.09
			C249.55,122.49,250.68,125.8,254.15,125.8z"/>
    <path class="st4" d="M269.49,126.72c0.1,0.75-0.43,1.45-1.19,1.55c-0.76,0.1-1.45-0.44-1.55-1.19c-0.02-0.12-0.02-0.24,0-0.36
			V105.4c-0.1-0.76,0.43-1.45,1.19-1.55c0.76-0.1,1.45,0.43,1.55,1.19c0.02,0.12,0.02,0.24,0,0.36V126.72z"/>
    <path class="st4" d="M288.67,126.84c0.04,0.7-0.5,1.29-1.19,1.33c-0.03,0-0.06,0-0.09,0c-0.7,0.01-1.28-0.54-1.29-1.24
			c0-0.03,0-0.06,0-0.09v-1.15l0,0c-1,1.57-2.74,2.51-4.6,2.48c-4.6,0-7.29-4.07-7.29-8.46c0-4.39,2.62-8.46,7.29-8.46
			c1.81,0.01,3.51,0.86,4.6,2.3l0,0v-0.92c-0.04-0.7,0.5-1.29,1.19-1.33c0.03,0,0.06,0,0.09,0c0.7-0.01,1.28,0.54,1.29,1.24
			c0,0.03,0,0.06,0,0.09V126.84z M281.54,125.8c3.36,0,4.6-3.31,4.6-6.09c0-2.78-1.17-6.09-4.6-6.09c-3.43,0-4.6,3.31-4.6,6.09
			C276.94,122.49,278.28,125.8,281.54,125.8z"/>
    <path class="st4" d="M293.25,113.91c-0.2-0.48-0.33-1-0.37-1.52c0.04-0.65,0.59-1.16,1.24-1.15c0.64-0.01,1.21,0.41,1.38,1.04
			l3.79,11.36l0,0l3.73-11.36c0.14-0.61,0.68-1.04,1.31-1.04c0.66-0.01,1.2,0.5,1.24,1.15c-0.04,0.52-0.16,1.04-0.37,1.52
			l-6.9,19.78c-0.16,0.6-0.71,1.03-1.33,1.04c-0.66,0.01-1.2-0.49-1.24-1.15c0.05-0.53,0.19-1.04,0.41-1.52l1.75-4.6L293.25,113.91z
			"/>
    <path class="st4" d="M315.07,111.25c2.3,0,5.52,1.22,5.52,2.92c0,0.62-0.5,1.13-1.12,1.13c-0.04,0-0.08,0-0.12-0.01
			c-1.17,0-1.66-1.68-4.28-1.68c-1.56,0-2.9,0.69-2.9,2.09c0,2.9,8.85,2.58,8.85,7.38c0,3.45-2.97,5.11-6.05,5.11
			c-3.5,0-6.23-1.75-6.23-3.15c-0.04-0.65,0.45-1.2,1.1-1.24c0.01,0,0.02,0,0.03,0c1.22,0,2.3,2.02,5.2,2.02c2,0,3.2-1.13,3.2-2.3
			c0-3.24-8.85-3.06-8.85-7.66c0.25-2.81,2.73-4.88,5.54-4.63C314.99,111.24,315.03,111.24,315.07,111.25z"/>
    <path class="st4" d="M326.91,105.73c0.93,0,1.68,0.75,1.68,1.68c0,0.93-0.75,1.68-1.68,1.68c-0.93,0-1.68-0.75-1.68-1.68l0,0
			C325.23,106.48,325.99,105.73,326.91,105.73z M328.29,126.81c0.1,0.76-0.43,1.45-1.19,1.55c-0.76,0.1-1.45-0.43-1.55-1.19
			c-0.02-0.12-0.02-0.24,0-0.36v-14.19c-0.1-0.76,0.43-1.45,1.19-1.55c0.76-0.1,1.45,0.43,1.55,1.19c0.01,0.12,0.01,0.24,0,0.36
			V126.81z"/>
    <path class="st4" d="M347.47,126.84c0.04,0.7-0.5,1.29-1.19,1.33c-0.03,0-0.06,0-0.09,0c-0.7,0.01-1.28-0.54-1.29-1.24
			c0-0.03,0-0.06,0-0.09v-1.15l0,0c-1,1.57-2.74,2.51-4.6,2.48c-4.6,0-7.29-4.07-7.29-8.46c0-4.39,2.76-8.46,7.36-8.46
			c1.81,0.01,3.51,0.86,4.6,2.3l0,0v-0.92c-0.04-0.7,0.5-1.29,1.19-1.33c0.03,0,0.06,0,0.09,0c0.7-0.01,1.28,0.54,1.29,1.24
			c0,0.03,0,0.06,0,0.09L347.47,126.84z M340.34,125.8c3.36,0,4.6-3.31,4.6-6.09c0-2.78-1.17-6.09-4.6-6.09
			c-3.43,0-4.6,3.31-4.6,6.09c0,2.78,1.24,6.09,4.62,6.09H340.34z"/>
    <path class="st4" d="M354,106.78c0.32-0.6,0.64-1.15,1.47-1.15c0.66-0.01,1.22,0.51,1.24,1.17c-0.02,0.41-0.14,0.8-0.34,1.15
			l-1.75,3.43c-0.32,0.6-0.64,1.15-1.47,1.15c-0.66,0.01-1.22-0.51-1.24-1.17c0.02-0.41,0.14-0.8,0.35-1.15L354,106.78z"/>
    <path class="st4" d="M364.72,111.25c2.3,0,5.52,1.22,5.52,2.92c0.02,0.61-0.46,1.12-1.07,1.14c-0.06,0-0.11,0-0.17-0.01
			c-1.17,0-1.66-1.68-4.28-1.68c-1.56,0-2.9,0.69-2.9,2.09c0,2.9,8.85,2.58,8.85,7.38c0,3.45-2.97,5.11-6.05,5.11
			c-3.5,0-6.23-1.75-6.23-3.15c-0.04-0.65,0.45-1.2,1.1-1.24c0.01,0,0.02,0,0.03,0c1.22,0,2.3,2.02,5.2,2.02c2,0,3.2-1.13,3.2-2.3
			c0-3.24-8.85-3.06-8.85-7.66c0.25-2.81,2.73-4.88,5.54-4.63C364.64,111.24,364.68,111.24,364.72,111.25z"/>
    <path class="st4" d="M387.55,125.43h5.86c0.7-0.09,1.35,0.4,1.45,1.1c0.09,0.71-0.4,1.35-1.1,1.45c-0.11,0.01-0.23,0.01-0.34,0
			h-7.06c-0.75,0.07-1.41-0.48-1.47-1.23c-0.01-0.09-0.01-0.18,0-0.27v-19.39c-0.1-0.76,0.43-1.45,1.19-1.55
			c0.76-0.1,1.45,0.43,1.55,1.19c0.02,0.12,0.02,0.24,0,0.36L387.55,125.43z"/>
    <path class="st4" d="M412.48,126.84c0.04,0.7-0.5,1.29-1.19,1.33c-0.03,0-0.06,0-0.09,0c-0.7,0.01-1.28-0.54-1.29-1.24
			c0-0.03,0-0.06,0-0.09v-1.15l0,0c-1,1.57-2.74,2.51-4.6,2.48c-4.6,0-7.29-4.07-7.29-8.46c0-4.39,2.62-8.46,7.29-8.46
			c1.81,0.01,3.51,0.86,4.6,2.3l0,0v-0.92c-0.04-0.7,0.5-1.29,1.19-1.33c0.03,0,0.06,0,0.09,0c0.7-0.01,1.28,0.54,1.29,1.24
			c0,0.03,0,0.06,0,0.09V126.84z M405.35,125.8c3.36,0,4.6-3.31,4.6-6.09c0-2.78-1.17-6.09-4.6-6.09c-3.43,0-4.6,3.31-4.6,6.09
			C400.75,122.49,401.99,125.8,405.35,125.8z"/>
    <path class="st4" d="M417.98,112.62c-0.1-0.76,0.43-1.45,1.19-1.55c0.76-0.1,1.45,0.43,1.55,1.19c0.02,0.12,0.02,0.24,0,0.36v1.4
			l0,0c0.68-1.53,2.09-2.62,3.75-2.87c0.77-0.06,1.45,0.51,1.51,1.28c0,0.04,0,0.08,0,0.12c0,0.78-0.55,1.29-1.7,1.5
			c-2.21,0.36-3.78,2.36-3.61,4.6v7.89c0.1,0.76-0.43,1.45-1.19,1.55c-0.76,0.1-1.45-0.43-1.55-1.19c-0.02-0.12-0.02-0.24,0-0.36
			L417.98,112.62z"/>
    <path class="st4" d="M443.23,126.81c0.41,3.94-2.45,7.47-6.39,7.88c-0.36,0.04-0.72,0.05-1.08,0.03c-2.83,0-6.35-1.61-6.35-3.01
			c-0.08-0.63,0.37-1.2,1-1.28c0.05-0.01,0.1-0.01,0.15-0.01c1.24,0,2.46,1.93,5.43,1.93c3.5,0,4.6-2.74,4.6-5.11v-1.43l0,0
			c-0.89,1.47-2.49,2.35-4.21,2.3c-4.6,0-7.29-4.07-7.29-8.46c0-4.39,2.62-8.46,7.29-8.46c1.64,0.05,3.18,0.81,4.21,2.09l0,0v-0.67
			c-0.02-0.72,0.55-1.33,1.28-1.34c0.06,0,0.13,0,0.19,0.01c0.7-0.01,1.28,0.54,1.29,1.24c0,0.03,0,0.06,0,0.09L443.23,126.81z
			 M436.33,125.82c3.36,0,4.6-3.31,4.6-6.09c0-2.78-1.17-6.09-4.6-6.09c-3.43,0-4.6,3.31-4.6,6.09c0,2.78,1.13,6.07,4.48,6.07
			L436.33,125.82z"/>
    <path class="st4" d="M450.56,120.77c-0.18,2.6,1.78,4.85,4.38,5.03c0.17,0.01,0.35,0.01,0.52,0.01c3.63,0,4.6-2.3,5.61-2.3
			c0.59,0.05,1.04,0.57,0.99,1.16c0,0.02,0,0.04-0.01,0.06c0,1.33-3.4,3.4-6.62,3.4c-5.29,0-7.59-4.07-7.59-8.46
			c0-4.39,2.9-8.42,7.5-8.42c4.16,0.22,7.36,3.77,7.14,7.93c0,0.05,0,0.1-0.01,0.14c0,0.97-0.34,1.47-1.52,1.47L450.56,120.77z
			 M459.76,118.72c0.28-2.52-1.54-4.8-4.06-5.08c-0.12-0.01-0.23-0.02-0.35-0.03c-3.4-0.11-4.6,2.58-4.6,5.11H459.76z"/>
    <path class="st4" d="M472.16,111.25c2.3,0,5.52,1.22,5.52,2.92c0.02,0.61-0.46,1.12-1.07,1.14c-0.06,0-0.11,0-0.17-0.01
			c-1.17,0-1.66-1.68-4.28-1.68c-1.56,0-2.9,0.69-2.9,2.09c0,2.9,8.85,2.58,8.85,7.38c0,3.45-2.97,5.11-6.05,5.11
			c-3.5,0-6.23-1.75-6.23-3.15c-0.04-0.65,0.45-1.2,1.1-1.24c0.01,0,0.02,0,0.03,0c1.22,0,2.3,2.02,5.2,2.02c2,0,3.2-1.13,3.2-2.3
			c0-3.24-8.85-3.06-8.85-7.66c0.25-2.81,2.73-4.88,5.54-4.63C472.07,111.24,472.11,111.24,472.16,111.25z"/>
    <path class="st4" d="M483.45,107.84c-0.1-0.76,0.43-1.45,1.19-1.55c0.75-0.1,1.45,0.43,1.55,1.19c0.01,0.12,0.01,0.24,0,0.36v3.59
			h1.13c0.9,0,1.38,0.44,1.38,1.17c0,0.74-0.46,1.17-1.38,1.17h-1.13v12.92c0.1,0.76-0.44,1.45-1.19,1.55
			c-0.76,0.1-1.45-0.43-1.55-1.19c-0.02-0.12-0.02-0.24,0-0.36v-12.9h-1.13c-0.9,0-1.38-0.44-1.38-1.17c0-0.74,0.46-1.17,1.38-1.17
			h1.13V107.84z"/>
    <path class="st4" d="M541.76,126.84c0.04,0.7-0.5,1.29-1.19,1.33c-0.03,0-0.06,0-0.09,0c-0.7,0.01-1.28-0.54-1.29-1.24
			c0-0.03,0-0.06,0-0.09v-1.15l0,0c-1,1.57-2.74,2.51-4.6,2.48c-4.6,0-7.29-4.07-7.29-8.46c0-4.39,2.62-8.46,7.29-8.46
			c1.81,0.01,3.51,0.86,4.6,2.3l0,0v-0.92c-0.04-0.7,0.5-1.29,1.19-1.33c0.03,0,0.06,0,0.09,0c0.7-0.01,1.28,0.54,1.29,1.24
			c0,0.03,0,0.06,0,0.09V126.84z M534.64,125.8c3.36,0,4.6-3.31,4.6-6.09c0-2.78-1.17-6.09-4.6-6.09c-3.43,0-4.6,3.31-4.6,6.09
			C530.04,122.49,531.23,125.8,534.64,125.8z"/>
    <path class="st4" d="M547.33,112.62c-0.1-0.76,0.43-1.45,1.19-1.55c0.76-0.1,1.45,0.43,1.55,1.19c0.02,0.12,0.02,0.24,0,0.36v1.4
			l0,0c0.68-1.53,2.09-2.62,3.75-2.87c0.77-0.06,1.45,0.51,1.51,1.28c0,0.04,0,0.08,0,0.12c0,0.78-0.55,1.29-1.7,1.5
			c-2.21,0.36-3.78,2.36-3.61,4.6v7.89c0.1,0.76-0.43,1.45-1.19,1.55c-0.76,0.1-1.45-0.43-1.55-1.19c-0.02-0.12-0.02-0.24,0-0.36
			L547.33,112.62z"/>
    <path class="st4" d="M559.56,105.4c-0.1-0.76,0.43-1.45,1.19-1.55c0.76-0.1,1.45,0.43,1.55,1.19c0.02,0.12,0.02,0.24,0,0.36v11.68
			l5.98-5.01c0.41-0.45,0.96-0.75,1.56-0.85c0.62-0.01,1.14,0.48,1.15,1.1c0,0.04,0,0.08,0,0.12c-0.02,0.48-0.28,0.92-0.69,1.17
			l-6.23,4.92l7.22,7.13c0.42,0.34,0.66,0.86,0.64,1.4c-0.02,0.61-0.54,1.09-1.15,1.08c-0.64,0-0.94-0.18-1.59-0.85l-6.9-7.22v6.6
			c0.1,0.76-0.43,1.45-1.19,1.55c-0.76,0.1-1.45-0.44-1.55-1.19c-0.02-0.12-0.02-0.24,0-0.36V105.4z"/>
    <path class="st4" d="M577.59,120.77c-0.18,2.6,1.78,4.85,4.38,5.03c0.17,0.01,0.35,0.01,0.52,0.01c3.63,0,4.6-2.3,5.61-2.3
			c0.59,0.05,1.04,0.57,0.99,1.16c0,0.02,0,0.04-0.01,0.06c0,1.33-3.4,3.4-6.62,3.4c-5.29,0-7.59-4.07-7.59-8.46
			c0-4.39,2.8-8.46,7.45-8.46c4.16,0.22,7.36,3.77,7.14,7.93c0,0.05-0.01,0.1-0.01,0.14c0,0.97-0.34,1.47-1.52,1.47L577.59,120.77z
			 M586.79,118.72c0.28-2.52-1.54-4.8-4.06-5.08c-0.11-0.01-0.22-0.02-0.33-0.03c-3.4-0.11-4.6,2.58-4.6,5.11H586.79z"/>
    <path class="st4" d="M595.39,107.84c-0.1-0.76,0.43-1.45,1.19-1.55c0.76-0.1,1.45,0.43,1.55,1.19c0.02,0.12,0.02,0.24,0,0.36v3.59
			h1.13c0.9,0,1.38,0.44,1.38,1.17c0,0.74-0.46,1.17-1.38,1.17h-1.13v12.92c0.1,0.76-0.43,1.45-1.19,1.55
			c-0.76,0.1-1.45-0.43-1.55-1.19c-0.02-0.12-0.02-0.24,0-0.36v-12.9h-1.13c-0.9,0-1.38-0.44-1.38-1.17c0-0.74,0.46-1.17,1.38-1.17
			h1.13V107.84z"/>
    <path class="st4" d="M605.23,112.62c-0.1-0.76,0.44-1.45,1.19-1.55c0.75-0.1,1.45,0.43,1.55,1.19c0.01,0.12,0.01,0.24,0,0.36v0.8
			l0,0c0.89-1.57,2.62-2.46,4.41-2.3c4.48,0,7.06,4.07,7.06,8.46c0,4.39-2.58,8.46-7.06,8.46c-1.76,0-3.41-0.86-4.41-2.3l0,0v7.57
			c0.1,0.76-0.44,1.45-1.19,1.55c-0.76,0.1-1.45-0.43-1.55-1.19c-0.01-0.12-0.01-0.24,0-0.36V112.62z M612.13,125.73
			c3.36,0,4.6-3.31,4.6-6.09c0-2.78-1.17-6.09-4.6-6.09c-3.43,0-4.6,3.31-4.6,6.09c0,2.78,1.33,6.16,4.71,6.16L612.13,125.73z"/>
    <path class="st4" d="M627.03,126.72c0.1,0.75-0.44,1.45-1.19,1.55c-0.76,0.1-1.45-0.44-1.55-1.19c-0.02-0.12-0.02-0.24,0-0.36
			V105.4c-0.1-0.76,0.43-1.45,1.19-1.55c0.75-0.1,1.45,0.43,1.55,1.19c0.02,0.12,0.02,0.24,0,0.36V126.72z"/>
    <path class="st4" d="M646.21,126.84c0.04,0.7-0.5,1.29-1.19,1.33c-0.03,0-0.06,0-0.09,0c-0.7,0.01-1.28-0.54-1.29-1.24
			c0-0.03,0-0.06,0-0.09v-1.15l0,0c-1,1.57-2.74,2.51-4.6,2.48c-4.6,0-7.29-4.07-7.29-8.46c0-4.39,2.62-8.46,7.29-8.46
			c1.81,0.01,3.51,0.86,4.6,2.3l0,0v-0.92c-0.04-0.7,0.5-1.29,1.19-1.33c0.03,0,0.06,0,0.09,0c0.7-0.01,1.28,0.54,1.29,1.24
			c0,0.03,0,0.06,0,0.09V126.84z M639.08,125.8c3.36,0,4.6-3.31,4.6-6.09c0-2.78-1.17-6.09-4.6-6.09c-3.43,0-4.6,3.31-4.6,6.09
			C634.48,122.49,635.72,125.8,639.08,125.8z"/>
    <path class="st4" d="M658.44,111.25c2.81,0,4.46,0.97,4.46,2.09c-0.01,0.62-0.51,1.12-1.13,1.15c-1.06,0-1.47-0.87-3.33-0.87
			c-3.4,0-4.74,3.31-4.74,6.09c0,2.78,1.33,6.09,4.74,6.09c1.93,0,2.44-0.94,3.31-0.94c0.57-0.02,1.05,0.43,1.06,1
			c0,0.05,0,0.1-0.01,0.15c0,1.03-1.52,2.14-4.37,2.14c-5.04,0-7.47-4.07-7.47-8.46C650.97,115.29,653.41,111.25,658.44,111.25z"/>
    <path class="st4" d="M668.52,120.77c-0.18,2.6,1.78,4.85,4.38,5.03c0.17,0.01,0.35,0.01,0.52,0.01c3.63,0,4.6-2.3,5.61-2.3
			c0.6,0.05,1.04,0.57,1,1.16c0,0.02,0,0.04-0.01,0.06c0,1.33-3.4,3.4-6.62,3.4c-5.29,0-7.59-4.07-7.59-8.46
			c0-4.39,2.81-8.46,7.45-8.46c4.16,0.22,7.36,3.77,7.14,7.93c0,0.05-0.01,0.1-0.01,0.14c0,0.97-0.34,1.47-1.52,1.47L668.52,120.77z
			 M677.72,118.72c0.28-2.52-1.54-4.8-4.06-5.08c-0.11-0.01-0.22-0.02-0.33-0.03c-3.4-0.11-4.6,2.58-4.6,5.11H677.72z"/>
    <path class="st4" d="M224.9,126.81c0,0.94-0.62,1.17-1.22,1.17c-0.6,0-1.08-0.9-1.04-1.63c0.23-5.89,0-11.77,0-17.66v-0.8
			c0.23-1.52,0.97-2.05,1.79-2.05c1.54,0,1.84,1.75,2.3,2.88c0.46,1.13,0.87,2.12,1.31,3.15l3.13,7.66c0.4,1.26,0.9,2.49,1.52,3.66
			l0,0l4.99-12.05l1.43-3.47c0.39-0.97,0.64-1.82,1.84-1.82c0.83,0,1.56,0.53,1.79,2.05v13.8c0,1.63,0,3.24,0,4.88
			c0,0.83-0.37,1.38-1.06,1.38c-0.69,0-1.13-0.21-1.22-1.17l0.51-17.5l0,0l-1.4,3.5l-2.9,7.2l-2.44,6.07
			c-0.3,0.76-0.48,1.91-1.49,1.91c-0.45,0.01-0.86-0.27-1.01-0.69c-0.58-1.24-1.01-2.58-1.54-3.84l-1.45-3.61l-2.99-7.43l-0.9-2.3
			c-0.09-0.29-0.21-0.58-0.34-0.85l0,0L224.9,126.81z"/>
    <path class="st4" d="M232.7,128.17c-0.53,0.01-1.01-0.31-1.2-0.8c-0.37-0.83-0.69-1.68-1.01-2.51l-0.53-1.36l-5.31-13.18
			l0.46,16.53l0,0c0.02,0.72-0.56,1.32-1.28,1.34c-0.05,0-0.1,0-0.14,0l0,0c-0.31,0.01-0.61-0.1-0.83-0.32
			c-0.33-0.42-0.48-0.96-0.41-1.5c0.16-4.32,0-8.71,0-12.97c0-1.56,0-3.13,0-4.6V108c0.28-1.86,1.24-2.3,2-2.3
			c1.43,0,1.89,1.33,2.3,2.44l0.21,0.58c0.28,0.69,0.55,1.38,0.85,2.05l0.46,1.1l3.1,7.66l0.18,0.48c0.23,0.62,0.83,2.3,1.13,2.87
			l4.88-11.77l1.43-3.47v-0.16c0.37-0.92,0.71-1.77,1.98-1.77c0.76,0,1.7,0.39,2,2.3v13.8c0,0.85,0,1.72,0,2.55c0,0.83,0,1.54,0,2.3
			c0,0.76-0.48,1.59-1.26,1.59c-0.72,0.06-1.36-0.47-1.42-1.19c0-0.05-0.01-0.1,0-0.14l0.46-16.56l-4.85,12.07l-1.54,3.79
			l-0.14,0.41c-0.25,0.71-0.55,1.61-1.52,1.61L232.7,128.17z M224.21,109.11h0.25c0.16,0,0.21,0,0.48,0.87l0,0l5.33,13.27l0.53,1.36
			c0.32,0.83,0.64,1.68,1.01,2.48c0.12,0.35,0.46,0.58,0.83,0.58l0,0c0.64,0,0.87-0.53,1.15-1.33l0.16-0.44l1.54-3.79l5.27-13.08
			h0.39l-0.51,17.71c0,0.83,0.55,0.96,1.01,0.96c0.46,0,0.87-0.74,0.87-1.17c0-0.44,0-1.54,0-2.3c0-0.76,0-1.72,0-2.58v-13.8
			c-0.18-1.22-0.74-1.84-1.59-1.84c-0.85,0-1.24,0.64-1.59,1.52v0.16l-1.43,3.47l-5.04,12.19h-0.18c-0.23,0-0.39-0.14-1.52-3.29
			l-0.18-0.48l-3.2-7.63l-0.46-1.1c-0.28-0.67-0.57-1.38-0.85-2.07l-0.21-0.6c-0.37-1.06-0.74-2.16-1.86-2.16
			c-1.13,0-1.4,0.64-1.59,1.89v0.78c0,1.56,0,3.13,0,4.6c0,4.25,0.12,8.67,0,12.99c-0.05,0.43,0.05,0.86,0.3,1.22
			c0.15,0.14,0.35,0.22,0.55,0.21l0,0c0.48,0,0.92-0.12,1.01-0.97L224.21,109.11z"/>
    <path class="st4" d="M505.41,126.81c0,0.94-0.62,1.17-1.22,1.17c-0.6,0-1.08-0.9-1.04-1.63c0.23-5.89,0-11.77,0-17.66v-0.8
			c0.23-1.52,0.97-2.05,1.79-2.05c1.54,0,1.84,1.75,2.3,2.88c0.46,1.13,0.87,2.12,1.31,3.15l3.1,7.66c0.4,1.26,0.9,2.49,1.52,3.66
			l0,0l4.99-12.05l1.43-3.47c0.39-0.97,0.64-1.82,1.84-1.82c0.83,0,1.56,0.53,1.79,2.05v13.8c0,1.63,0,3.24,0,4.88
			c0,0.83-0.37,1.38-1.06,1.38c-0.69,0-1.13-0.21-1.22-1.17l0.51-17.5l0,0l-1.4,3.5l-2.9,7.2l-2.44,6.07
			c-0.3,0.76-0.48,1.91-1.49,1.91c-0.45,0.01-0.86-0.27-1.01-0.69c-0.58-1.24-1.01-2.58-1.54-3.84l-1.45-3.61l-2.99-7.43l-0.9-2.3
			c-0.09-0.29-0.21-0.58-0.34-0.85l0,0L505.41,126.81z"/>
    <path class="st4" d="M513.2,128.17c-0.53,0.01-1.01-0.31-1.2-0.8c-0.37-0.83-0.69-1.68-1.01-2.51l-0.53-1.36l-5.34-13.18
			l0.46,16.53l0,0c0.02,0.72-0.56,1.32-1.28,1.34c-0.05,0-0.1,0-0.14,0l0,0c-0.31,0.01-0.61-0.1-0.83-0.32
			c-0.33-0.42-0.48-0.96-0.41-1.5c0.16-4.32,0-8.71,0-12.97c0-1.56,0-3.13,0-4.6V108c0.28-1.86,1.24-2.3,2-2.3
			c1.43,0,1.89,1.33,2.3,2.44l0.21,0.58c0.28,0.69,0.55,1.38,0.85,2.05l0.46,1.1l3.1,7.66l0.18,0.48c0.23,0.62,0.83,2.3,1.13,2.87
			l4.88-11.77l1.43-3.47v-0.16c0.37-0.92,0.71-1.77,1.98-1.77c0.76,0,1.7,0.39,2,2.3v13.8c0,0.85,0,1.72,0,2.55c0,0.83,0,1.54,0,2.3
			c0,0.76-0.48,1.59-1.26,1.59c-0.72,0.06-1.36-0.47-1.42-1.19c0-0.05-0.01-0.1,0-0.14l0.46-16.56l-4.85,12.07l-1.54,3.79
			l-0.14,0.41c-0.25,0.71-0.55,1.61-1.52,1.61L513.2,128.17z M504.72,109.11h0.25c0.16,0,0.21,0,0.48,0.87l0,0l5.33,13.27l0.53,1.36
			c0.32,0.83,0.64,1.68,1.01,2.48c0.12,0.35,0.45,0.58,0.83,0.58l0,0c0.64,0,0.87-0.53,1.15-1.33l0.16-0.44l1.54-3.79l5.27-13.08
			h0.39l-0.51,17.71c0,0.83,0.55,0.96,1.01,0.96c0.46,0,0.87-0.74,0.87-1.17c0-0.44,0-1.54,0-2.3c0-0.76,0-1.72,0-2.58v-13.8
			c-0.18-1.22-0.74-1.84-1.59-1.84c-0.85,0-1.24,0.64-1.59,1.52v0.16l-1.43,3.47l-5.04,12.19h-0.18c-0.23,0-0.39-0.14-1.52-3.29
			l-0.18-0.48l-3.29-7.63l-0.46-1.1c-0.28-0.67-0.58-1.38-0.85-2.07l-0.21-0.6c-0.37-1.06-0.74-2.16-1.86-2.16
			c-1.13,0-1.4,0.64-1.59,1.89v0.78c0,1.56,0,3.13,0,4.6c0,4.25,0.12,8.67,0,12.99c-0.05,0.43,0.05,0.86,0.3,1.22
			c0.15,0.14,0.35,0.22,0.55,0.21l0,0c0.48,0,0.92-0.12,1.01-0.97L504.72,109.11z"/>
</svg>
